<svg width="18" height="17" viewBox="0 0 18 17" fill="none" xmlns="http://www.w3.org/2000/svg">
<path d="M15.0566 10.5265C15.0463 10.5938 15.042 10.6651 15.042 10.7378V15.2344C15.042 15.3071 15.0471 15.3784 15.0574 15.4465C15.126 15.8777 15.4251 16.0883 15.9703 16.0883H17.5663V9.88391H15.9703C15.4251 9.88391 15.126 10.0937 15.0574 10.5257L15.0566 10.5265Z" fill="#B8B8B8"/>
<path d="M13.7578 6.70661C13.955 6.6679 14.1067 6.64932 14.2498 6.64932C14.3672 6.64932 14.4778 6.66171 14.603 6.68494C14.6424 6.6919 14.6895 6.70352 14.7427 6.71513C14.9792 6.7701 15.3367 6.85371 15.5775 6.72132C15.7378 6.63384 15.8278 6.50455 15.8312 6.35823C15.8347 6.21113 15.7507 6.06868 15.6127 5.98584C15.269 5.77913 14.8215 5.86042 14.5164 6.00442C14.1838 6.16235 13.9395 6.44571 13.7578 6.70584V6.70661Z" fill="#0D74FF"/>
<path d="M3.06445 15.3923H14.905C14.8999 15.3404 14.8965 15.2878 14.8965 15.2344V10.7379C14.8965 10.6844 14.8999 10.6318 14.905 10.5799H9.03017L8.69245 11.2295L9.61217 11.471C9.63445 11.4772 9.65245 11.4927 9.66017 11.5128C9.66788 11.533 9.66445 11.5554 9.65074 11.5724L9.26074 12.0586L10.1342 12.3939C10.1633 12.4047 10.1813 12.4326 10.1779 12.4604L10.0485 13.6202C10.045 13.6542 10.0133 13.679 9.97645 13.679C9.97388 13.679 9.97131 13.679 9.96874 13.679C9.92931 13.6752 9.90017 13.6434 9.90359 13.607L10.0279 12.4953L9.17245 12.167L8.34102 13.2029C8.32645 13.2207 8.30502 13.23 8.28274 13.23C8.26817 13.23 8.25274 13.2261 8.23988 13.2176C8.20731 13.1967 8.20045 13.1557 8.2236 13.1262L9.47245 11.5709L8.57074 11.334C8.55017 11.3286 8.53388 11.3154 8.52531 11.2984C8.51674 11.2813 8.51674 11.2612 8.52531 11.2434L8.86988 10.5799H3.06445C3.0696 10.6318 3.07302 10.6844 3.07302 10.7379V15.2344C3.07302 15.2886 3.0696 15.3404 3.06445 15.3923V15.3923Z" fill="#B8B8B8"/>
<path d="M5.70297 8.22404C6.49154 8.32159 6.96811 8.38042 7.62297 8.67694C8.56497 9.10352 8.84269 10.0194 8.9224 10.4483H8.94297C9.1564 10.0349 9.51469 9.49604 10.0341 9.19952C10.4095 8.98507 10.8887 8.94249 11.2384 8.91152C11.2958 8.9061 11.3498 8.90146 11.3987 8.89604C11.8624 8.84649 12.1984 8.69397 12.3467 8.46559C12.4821 8.25888 12.501 7.83307 12.1795 7.60468C11.865 7.38094 11.4295 7.45604 11.1201 7.55746C10.6555 7.7092 9.74269 8.29681 9.3124 8.90997C9.29269 8.93707 9.25411 8.94791 9.22154 8.93475C9.18897 8.92159 9.17183 8.8883 9.18211 8.85655C9.44269 8.06068 9.86183 7.50326 10.5827 6.99307C11.0387 6.66946 11.4235 6.50146 11.8693 6.30713C11.9927 6.25294 12.1221 6.19642 12.2601 6.13371C12.6347 5.96339 13.0667 5.65991 13.167 5.41062C13.3581 4.93604 13.089 4.59152 12.759 4.47307C12.4058 4.3461 11.895 4.44133 11.4587 4.71617C11.3327 4.79591 10.2064 5.53604 9.4384 7.07049C9.42297 7.10068 9.38611 7.11539 9.35097 7.1061C9.31583 7.09604 9.2944 7.0643 9.30126 7.03178C9.47097 6.18404 9.85926 5.28055 10.3393 4.6132C10.7961 3.97913 11.265 3.52778 11.6061 3.19797C11.6961 3.11126 11.7767 3.03384 11.8444 2.96494C12.2438 2.55771 12.3904 2.24339 12.333 1.91436C12.2644 1.52417 11.9318 1.29036 11.4673 1.3012C10.9495 1.31513 10.5647 1.59617 10.1395 2.27126C9.83011 2.76055 9.56954 3.34971 9.22669 4.77578C9.21897 4.80907 9.18469 4.83075 9.14697 4.82688C9.11011 4.823 9.08183 4.79359 9.08354 4.7603C9.14783 2.56623 8.67811 1.78971 8.31897 1.3972C8.03269 1.08288 7.7704 0.936553 7.44297 0.907134C7.00669 0.869972 6.61669 1.05423 6.44954 1.37552C6.32954 1.607 6.32354 2.00107 6.66897 2.41294C6.72297 2.47797 6.78983 2.55075 6.86783 2.63513C7.11811 2.90688 7.46011 3.27926 7.85183 3.88004C8.36611 4.66894 8.51697 5.5492 8.58469 6.62765C8.5864 6.66094 8.56069 6.69036 8.52383 6.69578C8.48783 6.7012 8.45183 6.68107 8.4424 6.64855C8.05583 5.38817 7.15411 4.28726 6.4324 3.75462C6.07411 3.49062 5.77154 3.33733 5.3704 3.38765C5.02069 3.43178 4.63069 3.64004 4.58697 4.09139C4.53983 4.5861 4.92297 4.87875 5.21526 5.05604C5.33697 5.13036 5.48783 5.20855 5.66183 5.29913C6.02097 5.48649 6.4684 5.71952 6.93383 6.0563C7.82183 6.6981 8.27526 7.34223 8.5504 8.35488C8.55897 8.38507 8.54183 8.41681 8.51011 8.42997C8.4784 8.44313 8.44069 8.43384 8.42097 8.4083C7.7344 7.53655 6.57554 6.82507 5.78183 6.79023C5.75869 6.78946 5.73554 6.78868 5.71326 6.78868C5.24783 6.78868 4.9144 7.00546 4.85526 7.35307C4.82183 7.54662 4.8724 7.7363 4.99583 7.88571C5.14411 8.0661 5.3884 8.18223 5.70126 8.22094L5.70297 8.22404Z" fill="#0D74FF"/>
<path d="M2.92749 15.2344V10.7379C2.92749 10.6651 2.92234 10.5939 2.91292 10.5265C2.84349 10.0945 2.54434 9.8847 1.99834 9.8847H0.402344V16.0883H1.99834C2.54434 16.0883 2.84349 15.8785 2.91292 15.4457C2.92234 15.3792 2.92749 15.3072 2.92749 15.2344V15.2344Z" fill="#B8B8B8"/>
<path d="M1.12176 5.25656C1.33605 5.42378 1.70376 5.39514 1.94633 5.37656C2.00033 5.37268 2.04919 5.36881 2.08947 5.36727C2.11605 5.36649 2.1409 5.36572 2.16576 5.36572C2.41433 5.36572 2.61147 5.40443 2.91919 5.51668C2.78719 5.23178 2.59862 4.91514 2.30033 4.70997C2.0269 4.52107 1.6009 4.37397 1.22376 4.52572C1.07205 4.58688 0.963189 4.71539 0.939189 4.86094C0.916046 5.00572 0.980332 5.14585 1.12176 5.25578V5.25656Z" fill="#0D74FF"/>
</svg>
